# xmcd
#
# Track frame offsets: 
#        150
#        13066
#        25618
#        47034
#        62026
#        81226
#        101518
#        121379
#        147790
#        160136
#        179419
#        190446
#        201866
#        213491
#        228920
#        253809
#
# Disc length: 3557 seconds
#
# Revision: 0
# Processed by: cddbd v1.5.2PL0 Copyright (c) Steve Scherf et al.
# Submitted via: ExactAudioCopy v0.99pb3
#
DISCID=df0de310
DTITLE=Sean Carney and The Nite Owlz - Provisions: A Second Helping
DYEAR=2007
DGENRE=Blues
TTITLE0=That's Better For Me
TTITLE1=It's My Life Baby
TTITLE2=Love Is Just A Gamble
TTITLE3=I Believe I'll Give It Up
TTITLE4=I'll Die Tryin'
TTITLE5=Sweet Woman From Maine
TTITLE6=The Push
TTITLE7=True Love Untold
TTITLE8=Matchbox
TTITLE9=Ain't That Dandy
TTITLE10=I'm Worried
TTITLE11=You Know-Yeah
TTITLE12=Oh Baby
TTITLE13=I Got News
TTITLE14=It's Obdacious
TTITLE15=Good Rockin' Tonight
EXTD=
EXTT0=
EXTT1=
EXTT2=
EXTT3=
EXTT4=
EXTT5=
EXTT6=
EXTT7=
EXTT8=
EXTT9=
EXTT10=
EXTT11=
EXTT12=
EXTT13=
EXTT14=
EXTT15=
PLAYORDER=
